<?xml version="1.0" encoding="UTF-8"?>
<svg xmlns="http://www.w3.org/2000/svg" viewBox="0 0 900 600" width="900" height="600">
  <title>Flight path trace_full_a65095.json</title>
  <style>
    .full-path { fill: none; stroke: #ccc; stroke-width: 1.5; }
    .start { fill: #0f9d58; }
    .end { fill: #d93025; }
    .centroid { fill: #f9ab00; stroke: #333; stroke-width: 1; }
  </style>
  <!-- Full path (faded) -->
  <polyline class="full-path" points="556.60,878.90 554.99,876.56 553.29,874.00 551.63,871.53 549.99,868.90 548.75,866.05 548.17,862.96 547.38,858.73 546.87,855.08 546.36,850.37 545.82,844.83 545.35,839.88 545.04,836.15 544.55,831.22 543.75,825.03 543.20,821.04 542.60,816.12 542.19,811.48 541.92,806.77 541.72,801.96 541.65,797.01 541.70,792.85 540.81,787.21 539.09,782.71 537.19,778.57 535.29,774.54 532.89,769.31 531.00,765.11 528.59,759.93 526.76,755.69 524.91,751.53 523.22,747.46 521.89,743.50 520.85,739.64 519.96,735.85 519.03,731.69 518.58,728.17 517.93,723.67 517.62,720.29 517.46,715.02 517.49,710.43 517.23,707.27 516.65,702.50 516.22,697.39 515.88,694.27 514.96,689.83 514.14,685.17 512.93,681.59 511.22,676.99 509.49,672.27 507.74,667.61 505.98,663.10 504.27,658.83 502.38,654.46 500.46,650.11 499.03,646.49 497.40,642.24 495.77,637.99 494.14,633.49 492.57,629.04 490.99,624.54 489.39,620.04 487.76,615.40 486.31,611.36 484.70,607.99 482.63,603.61 480.84,599.30 479.04,594.93 477.28,590.66 475.50,586.41 473.64,582.24 471.84,578.12 470.07,574.03 468.92,570.89 467.56,566.60 466.24,562.53 464.75,558.17 463.26,553.77 461.81,549.50 460.31,545.17 458.96,541.07 457.64,536.90 456.92,534.78 455.57,530.64 454.24,526.50 452.95,522.48 451.65,518.48 450.33,514.38 449.01,510.42 447.54,506.44 445.93,502.16 444.23,497.60 442.48,492.80 440.67,487.89 438.80,482.96 437.13,478.16 435.42,473.17 433.74,468.37 431.99,463.57 430.31,458.93 429.66,456.29 428.79,451.46 427.90,446.21 427.69,443.03 427.67,437.21 427.61,431.41 427.52,425.68 427.38,419.99 427.21,414.20 427.21,408.39 427.18,402.43 427.06,396.52 426.86,390.72 426.75,384.72 426.72,381.62 426.59,375.54 426.48,369.50 426.40,363.49 426.45,357.25 426.51,351.12 426.59,345.02 426.57,339.23 426.43,333.31 426.40,327.64 426.31,321.76 426.17,316.04 426.06,310.21 425.95,304.58 425.80,298.87 425.72,293.27 425.69,287.66 425.65,282.15 425.63,279.29 425.60,273.76 425.50,268.06 425.40,262.47 425.30,256.70 425.22,251.12 425.17,245.38 425.05,239.84 425.02,234.23 425.08,228.74 425.02,223.32 424.99,217.84 424.91,212.39 424.85,206.91 424.76,201.45 424.65,196.02 424.53,190.51 424.40,184.97 424.23,179.44 424.19,173.96 424.32,168.31 424.35,162.98 424.16,157.43 424.02,152.06 424.13,146.66 424.14,141.30 424.17,135.92 424.14,130.40 423.93,124.99 423.76,119.45 423.70,113.66 423.70,107.82 423.73,102.13 423.70,96.22 423.55,90.61 423.43,84.91 423.35,79.35 423.29,73.70 423.20,68.43 422.82,65.48 421.99,60.43 421.20,55.44 420.42,50.52 419.67,45.52 419.96,42.74 424.24,41.38 429.82,44.68 431.29,51.32 429.22,60.83 428.50,67.45 428.85,76.59 429.09,87.80 429.25,99.01 429.36,110.55 429.42,122.26 429.59,133.74 429.79,145.05 430.05,156.56 430.28,168.27 430.43,179.90 430.60,191.79 430.73,203.63 430.78,215.25 430.92,226.80 431.07,238.72 431.26,250.18 431.46,261.96 431.54,273.45 431.64,285.22 431.71,296.38 431.81,307.85 431.90,319.42 431.95,330.89 432.08,342.47 432.16,353.98 432.25,365.11 432.30,376.66 432.41,388.05 432.50,399.61 432.13,410.31 431.21,421.27 429.97,431.56 431.64,437.61 436.86,441.02 441.24,439.68 441.75,436.69 440.99,434.20 440.09,429.34 439.17,424.94 438.97,419.88 438.91,414.20 438.85,408.64 438.63,403.09 438.68,397.63 438.63,391.97 438.54,386.17 438.43,380.49 438.43,374.65 438.34,368.88 438.19,363.11 438.19,357.13 438.17,351.27 438.18,345.44 438.05,339.55 437.85,333.79 437.70,327.99 437.68,322.29 437.67,316.55 437.67,310.78 437.65,304.97 437.62,299.12 437.56,293.18 437.36,287.49 437.28,281.58 437.20,275.83 437.10,270.11 437.03,264.45 437.00,258.81 436.94,253.37 436.94,247.87 436.99,242.44 437.05,237.04 436.99,231.68 436.77,226.48 436.61,221.01 436.49,215.56 436.38,210.28 436.30,204.87 436.18,199.42 436.07,193.96 436.10,188.37 436.15,182.50 436.04,176.68 435.89,170.99 435.84,165.30 435.81,159.62 435.80,154.12 435.78,148.54 435.86,142.94 435.89,137.77 435.68,132.15 435.46,126.62 435.38,121.02 435.35,115.37 435.30,109.82 435.23,104.08 435.12,98.42 435.06,95.48 434.94,89.86 434.80,84.02 434.71,78.22 434.69,72.28 434.60,66.33 434.77,61.85 436.18,58.41 439.49,55.84 445.61,54.80 452.13,56.59 458.10,61.24 462.07,68.41 463.11,75.08 462.61,85.01 461.25,92.18 458.69,101.83 456.74,107.43 453.81,112.46 449.92,118.70 447.30,124.31 445.07,130.62 443.37,141.76 442.92,148.85 442.59,160.46 442.51,172.27 442.71,184.05 443.08,195.93 443.28,207.73 443.43,219.41 443.51,230.97 443.55,242.23 443.61,253.48 443.61,259.29 443.66,270.97 443.77,282.40 444.00,293.88 444.26,305.66 444.52,317.05 444.84,328.70 445.21,340.14 445.53,351.90 445.41,363.31 445.24,374.96 445.15,386.45 445.07,398.08 445.13,409.65 445.32,421.41 445.60,432.95 445.87,444.70 446.11,456.37 446.25,467.53 446.30,478.76 446.39,490.18 446.50,501.36 446.59,512.70 446.65,524.01 446.51,532.17 445.33,540.53 443.69,550.21 445.67,556.27 451.51,558.62 455.05,556.53 454.99,553.24 454.67,548.29 454.39,544.43 454.43,541.57 454.32,536.34 454.21,530.87 454.21,525.34 454.21,519.76 454.21,514.23 454.10,508.79 453.84,503.38 453.87,497.93 453.84,492.25 453.81,486.53 453.73,480.84 453.64,475.01 453.56,469.09 453.47,463.24 453.35,457.45 453.28,451.54 453.21,445.70 453.14,439.84 453.06,433.97 453.03,428.09 452.98,422.18 452.92,416.27 452.89,410.29 452.83,404.40 452.75,398.66 452.66,392.74 452.55,386.83 452.43,380.97 452.37,375.06 452.34,369.03 452.32,363.16 452.30,357.30 452.32,351.61 452.30,345.86 452.20,340.03 452.07,334.30 451.99,328.45 451.94,322.41 451.88,316.54 451.80,310.53 451.74,304.74 451.71,298.87 451.65,293.07 451.65,290.13 451.62,284.32 451.51,278.78 451.48,273.17 451.39,267.75 451.34,262.26 451.25,256.74 451.22,251.26 451.17,245.88 451.09,240.49 451.03,234.96 450.95,229.52 450.81,224.10 450.76,218.44 450.70,212.76 450.59,206.96 450.42,201.16 450.33,195.28 450.19,189.64 449.50,186.28 447.86,181.62 446.59,177.53 445.77,173.51 447.45,170.47 453.06,170.36 457.70,175.45 458.43,182.56 457.61,191.05 457.50,199.61 457.61,211.72 457.72,223.75 457.90,236.08 458.15,248.21 458.35,259.90 458.47,271.65 458.61,283.23 458.71,294.97 458.76,306.65 458.84,318.42 458.90,330.18 458.99,342.08 459.10,353.55 459.36,365.47 459.59,376.79 459.72,388.18 459.86,399.78 459.97,411.18 460.06,422.25 460.17,433.42 460.28,444.76 460.37,455.87 460.45,467.39 460.56,478.69 460.68,490.02 460.83,501.50 460.97,512.84 461.12,523.92 460.82,531.41 459.47,541.94 459.07,548.45 463.74,553.35 468.04,552.38 468.28,548.03 467.90,543.63 467.87,539.22 467.82,534.09 467.64,528.77 467.68,523.33 467.65,517.81 467.56,512.13 467.50,506.49 467.40,500.81 467.27,495.15 467.21,489.54 467.23,486.67 467.30,481.00 467.29,475.54 467.31,469.99 467.31,464.52 467.24,459.04 467.03,453.61 466.84,448.13 466.72,442.58 466.58,437.05 466.55,431.47 466.52,425.85 466.47,420.26 466.39,414.45 466.27,408.64 466.16,402.89 466.18,397.15 466.18,391.52 466.09,385.86 466.01,380.26 465.89,374.54 465.80,368.80 465.82,363.10 465.85,357.39 465.85,351.74 465.85,346.14 465.80,340.51 465.66,335.02 465.57,329.51 465.63,323.83 465.66,318.16 465.57,312.71 465.46,307.11 465.40,301.64 465.32,296.05 465.29,290.55 465.20,284.89 465.09,279.28 464.98,273.56 464.84,267.87 464.67,262.15 464.60,256.34 464.74,250.40 464.87,245.37 464.77,239.53 464.64,233.87 464.57,230.97 464.48,225.46 464.42,220.12 464.42,214.81 464.45,209.70 464.59,206.80 467.65,204.61 473.53,206.97 476.28,212.45 475.15,223.35 473.17,233.60 471.90,241.11 471.64,247.35 471.67,258.79 471.59,270.59 471.53,282.32 471.79,294.46 472.23,306.85 472.48,318.79 472.68,331.18 472.79,343.22 472.82,355.43 472.85,367.57 472.91,379.82 473.02,391.93 473.13,403.61 473.28,415.68 473.39,427.83 473.48,439.82 473.63,451.72 473.70,457.93 473.81,470.13 473.89,482.30 474.00,494.08 474.09,500.30 474.18,512.37 474.29,524.44 473.98,532.46 472.66,544.11 474.85,550.99 480.33,553.30" />
  <!-- Legs (alternating colors with count) -->
  <polyline fill="none" stroke="#1a73e8" stroke-width="3" points="429.82,44.68 431.29,51.32 429.22,60.83 428.50,67.45 428.85,76.59 429.09,87.80 429.25,99.01 429.36,110.55 429.42,122.26 429.59,133.74 429.79,145.05 430.05,156.56 430.28,168.27 430.43,179.90 430.60,191.79 430.73,203.63 430.78,215.25 430.92,226.80 431.07,238.72 431.26,250.18 431.46,261.96 431.54,273.45 431.64,285.22 431.71,296.38 431.81,307.85 431.90,319.42 431.95,330.89 432.08,342.47 432.16,353.98 432.25,365.11 432.30,376.66 432.41,388.05 432.50,399.61 432.13,410.31 431.21,421.27 429.97,431.56 431.64,437.61" />
  <polyline fill="none" stroke="#ea4335" stroke-width="3" points="441.24,439.68 441.75,436.69 440.99,434.20 440.09,429.34 439.17,424.94 438.97,419.88 438.91,414.20 438.85,408.64 438.63,403.09 438.68,397.63 438.63,391.97 438.54,386.17 438.43,380.49 438.43,374.65 438.34,368.88 438.19,363.11 438.19,357.13 438.17,351.27 438.18,345.44 438.05,339.55 437.85,333.79 437.70,327.99 437.68,322.29 437.67,316.55 437.67,310.78 437.65,304.97 437.62,299.12 437.56,293.18 437.36,287.49 437.28,281.58 437.20,275.83 437.10,270.11 437.03,264.45 437.00,258.81 436.94,253.37 436.94,247.87 436.99,242.44 437.05,237.04 436.99,231.68 436.77,226.48 436.61,221.01 436.49,215.56 436.38,210.28 436.30,204.87 436.18,199.42 436.07,193.96 436.10,188.37 436.15,182.50 436.04,176.68 435.89,170.99 435.84,165.30 435.81,159.62 435.80,154.12 435.78,148.54 435.86,142.94 435.89,137.77 435.68,132.15 435.46,126.62 435.38,121.02 435.35,115.37 435.30,109.82 435.23,104.08 435.12,98.42 435.06,95.48 434.94,89.86 434.80,84.02 434.71,78.22 434.69,72.28 434.60,66.33 434.77,61.85 436.18,58.41 439.49,55.84 445.61,54.80 452.13,56.59 458.10,61.24 462.07,68.41 463.11,75.08 462.61,85.01 461.25,92.18 458.69,101.83 456.74,107.43 453.81,112.46 449.92,118.70 447.30,124.31 445.07,130.62 443.37,141.76 442.92,148.85 442.59,160.46 442.51,172.27 442.71,184.05 443.08,195.93 443.28,207.73 443.43,219.41 443.51,230.97 443.55,242.23 443.61,253.48 443.61,259.29 443.66,270.97 443.77,282.40 444.00,293.88 444.26,305.66 444.52,317.05 444.84,328.70 445.21,340.14 445.53,351.90 445.41,363.31 445.24,374.96 445.15,386.45 445.07,398.08 445.13,409.65 445.32,421.41 445.60,432.95 445.87,444.70 446.11,456.37 446.25,467.53 446.30,478.76 446.39,490.18 446.50,501.36 446.59,512.70 446.65,524.01 446.51,532.17 445.33,540.53 443.69,550.21 445.67,556.27 451.51,558.62 455.05,556.53 454.99,553.24 454.67,548.29 454.39,544.43 454.43,541.57 454.32,536.34 454.21,530.87 454.21,525.34 454.21,519.76 454.21,514.23 454.10,508.79 453.84,503.38 453.87,497.93 453.84,492.25 453.81,486.53 453.73,480.84 453.64,475.01 453.56,469.09 453.47,463.24 453.35,457.45 453.28,451.54 453.21,445.70 453.14,439.84 453.06,433.97 453.03,428.09 452.98,422.18 452.92,416.27 452.89,410.29 452.83,404.40 452.75,398.66 452.66,392.74 452.55,386.83 452.43,380.97 452.37,375.06 452.34,369.03 452.32,363.16 452.30,357.30 452.32,351.61 452.30,345.86 452.20,340.03 452.07,334.30 451.99,328.45 451.94,322.41 451.88,316.54 451.80,310.53 451.74,304.74 451.71,298.87 451.65,293.07 451.65,290.13 451.62,284.32 451.51,278.78 451.48,273.17 451.39,267.75 451.34,262.26 451.25,256.74 451.22,251.26 451.17,245.88 451.09,240.49 451.03,234.96 450.95,229.52 450.81,224.10 450.76,218.44 450.70,212.76 450.59,206.96 450.42,201.16 450.33,195.28 450.19,189.64 449.50,186.28 447.86,181.62 446.59,177.53 445.77,173.51" />
  <polyline fill="none" stroke="#1a73e8" stroke-width="3" points="457.70,175.45 458.43,182.56 457.61,191.05 457.50,199.61 457.61,211.72 457.72,223.75 457.90,236.08 458.15,248.21 458.35,259.90 458.47,271.65 458.61,283.23 458.71,294.97 458.76,306.65 458.84,318.42 458.90,330.18 458.99,342.08 459.10,353.55 459.36,365.47 459.59,376.79 459.72,388.18 459.86,399.78 459.97,411.18 460.06,422.25 460.17,433.42 460.28,444.76 460.37,455.87 460.45,467.39 460.56,478.69 460.68,490.02 460.83,501.50 460.97,512.84 461.12,523.92 460.82,531.41 459.47,541.94 459.07,548.45" />
  <polyline fill="none" stroke="#ea4335" stroke-width="3" points="468.04,552.38 468.28,548.03 467.90,543.63 467.87,539.22 467.82,534.09 467.64,528.77 467.68,523.33 467.65,517.81 467.56,512.13 467.50,506.49 467.40,500.81 467.27,495.15 467.21,489.54 467.23,486.67 467.30,481.00 467.29,475.54 467.31,469.99 467.31,464.52 467.24,459.04 467.03,453.61 466.84,448.13 466.72,442.58 466.58,437.05 466.55,431.47 466.52,425.85 466.47,420.26 466.39,414.45 466.27,408.64 466.16,402.89 466.18,397.15 466.18,391.52 466.09,385.86 466.01,380.26 465.89,374.54 465.80,368.80 465.82,363.10 465.85,357.39 465.85,351.74 465.85,346.14 465.80,340.51 465.66,335.02 465.57,329.51 465.63,323.83 465.66,318.16 465.57,312.71 465.46,307.11 465.40,301.64 465.32,296.05 465.29,290.55 465.20,284.89 465.09,279.28 464.98,273.56 464.84,267.87 464.67,262.15 464.60,256.34 464.74,250.40 464.87,245.37 464.77,239.53 464.64,233.87 464.57,230.97 464.48,225.46 464.42,220.12 464.42,214.81 464.45,209.70 464.59,206.80" />
  <polyline fill="none" stroke="#1a73e8" stroke-width="3" points="473.53,206.97 476.28,212.45 475.15,223.35 473.17,233.60 471.90,241.11 471.64,247.35 471.67,258.79 471.59,270.59 471.53,282.32 471.79,294.46 472.23,306.85 472.48,318.79 472.68,331.18 472.79,343.22 472.82,355.43 472.85,367.57 472.91,379.82 473.02,391.93 473.13,403.61 473.28,415.68 473.39,427.83 473.48,439.82 473.63,451.72 473.70,457.93 473.81,470.13 473.89,482.30 474.00,494.08 474.09,500.30 474.18,512.37 474.29,524.44 473.98,532.46 472.66,544.11 474.85,550.99" />
  <text x="431.06501159854787" y="238.7216067742915" font-size="14" font-weight="bold" fill="#111" stroke="#fff" stroke-width="2" text-anchor="middle" dominant-baseline="middle">1</text>
  <text x="443.7732677782415" y="282.401619832987" font-size="14" font-weight="bold" fill="#111" stroke="#fff" stroke-width="2" text-anchor="middle" dominant-baseline="middle">2</text>
  <text x="459.3616381403529" y="365.4694443211309" font-size="14" font-weight="bold" fill="#111" stroke="#fff" stroke-width="2" text-anchor="middle" dominant-baseline="middle">3</text>
  <text x="466.0055745521888" y="380.2594155176404" font-size="14" font-weight="bold" fill="#111" stroke="#fff" stroke-width="2" text-anchor="middle" dominant-baseline="middle">4</text>
  <text x="472.9098316348134" y="379.82142169067276" font-size="14" font-weight="bold" fill="#111" stroke="#fff" stroke-width="2" text-anchor="middle" dominant-baseline="middle">5</text>
  <!-- Start (green) / End (red) -->
  <circle class="start" cx="556.5999324518825" cy="878.89784692005" r="6" />
  <circle class="end" cx="480.3282796352883" cy="553.2976292755076" r="6" />
  <!-- Centroid -->
  <circle class="centroid" cx="463.4779925760521" cy="372.0278435685202" r="8" />
</svg>